<mxfile host="app.diagrams.net" modified="2022-10-18T07:27:11.681Z" agent="5.0 (Windows NT 10.0; Win64; x64) AppleWebKit/537.36 (KHTML, like Gecko) Chrome/106.0.0.0 Safari/537.36 Edg/106.0.1370.47" etag="lR7ZP5Jh_qSvf1L3AoWM" version="18.1.3" type="github">
  <diagram id="C5RBs43oDa-KdzZeNtuy" name="Page-1">
    <mxGraphModel dx="383" dy="662" grid="1" gridSize="10" guides="1" tooltips="1" connect="1" arrows="1" fold="1" page="1" pageScale="1" pageWidth="827" pageHeight="1169" math="0" shadow="0">
      <root>
        <mxCell id="WIyWlLk6GJQsqaUBKTNV-0" />
        <mxCell id="WIyWlLk6GJQsqaUBKTNV-1" parent="WIyWlLk6GJQsqaUBKTNV-0" />
        <mxCell id="Tnuf8n2Ic85Ua2c3ZTws-2" style="edgeStyle=orthogonalEdgeStyle;rounded=0;orthogonalLoop=1;jettySize=auto;html=1;" parent="WIyWlLk6GJQsqaUBKTNV-1" source="Tnuf8n2Ic85Ua2c3ZTws-0" target="Tnuf8n2Ic85Ua2c3ZTws-1" edge="1">
          <mxGeometry relative="1" as="geometry" />
        </mxCell>
        <mxCell id="Tnuf8n2Ic85Ua2c3ZTws-0" value="함수 진입" style="strokeWidth=2;html=1;shape=mxgraph.flowchart.terminator;whiteSpace=wrap;" parent="WIyWlLk6GJQsqaUBKTNV-1" vertex="1">
          <mxGeometry x="388" y="10" width="100" height="60" as="geometry" />
        </mxCell>
        <mxCell id="Tnuf8n2Ic85Ua2c3ZTws-7" style="edgeStyle=orthogonalEdgeStyle;rounded=0;orthogonalLoop=1;jettySize=auto;html=1;" parent="WIyWlLk6GJQsqaUBKTNV-1" source="Tnuf8n2Ic85Ua2c3ZTws-1" target="Tnuf8n2Ic85Ua2c3ZTws-6" edge="1">
          <mxGeometry relative="1" as="geometry" />
        </mxCell>
        <mxCell id="Tnuf8n2Ic85Ua2c3ZTws-1" value="" style="verticalLabelPosition=bottom;verticalAlign=top;html=1;shape=hexagon;perimeter=hexagonPerimeter2;arcSize=6;size=0.27;horizontal=1;" parent="WIyWlLk6GJQsqaUBKTNV-1" vertex="1">
          <mxGeometry x="380" y="90" width="120" height="60" as="geometry" />
        </mxCell>
        <mxCell id="Tnuf8n2Ic85Ua2c3ZTws-9" value="Yes" style="edgeStyle=orthogonalEdgeStyle;rounded=0;orthogonalLoop=1;jettySize=auto;html=1;entryX=0.5;entryY=0;entryDx=0;entryDy=0;fontStyle=1;exitX=0.5;exitY=1;exitDx=0;exitDy=0;exitPerimeter=0;" parent="WIyWlLk6GJQsqaUBKTNV-1" source="Tnuf8n2Ic85Ua2c3ZTws-6" target="Tnuf8n2Ic85Ua2c3ZTws-8" edge="1">
          <mxGeometry relative="1" as="geometry">
            <Array as="points">
              <mxPoint x="438" y="270" />
            </Array>
          </mxGeometry>
        </mxCell>
        <mxCell id="Tnuf8n2Ic85Ua2c3ZTws-19" style="edgeStyle=orthogonalEdgeStyle;rounded=0;orthogonalLoop=1;jettySize=auto;html=1;exitX=1;exitY=0.5;exitDx=0;exitDy=0;exitPerimeter=0;" parent="WIyWlLk6GJQsqaUBKTNV-1" source="Tnuf8n2Ic85Ua2c3ZTws-6" edge="1">
          <mxGeometry relative="1" as="geometry">
            <mxPoint x="438" y="920" as="targetPoint" />
            <Array as="points">
              <mxPoint x="140" y="220" />
              <mxPoint x="140" y="920" />
            </Array>
          </mxGeometry>
        </mxCell>
        <mxCell id="Tnuf8n2Ic85Ua2c3ZTws-20" value="&lt;b&gt;No&lt;br&gt;&lt;/b&gt;" style="edgeLabel;html=1;align=center;verticalAlign=middle;resizable=0;points=[];" parent="Tnuf8n2Ic85Ua2c3ZTws-19" vertex="1" connectable="0">
          <mxGeometry x="-0.4032" y="1" relative="1" as="geometry">
            <mxPoint as="offset" />
          </mxGeometry>
        </mxCell>
        <mxCell id="Tnuf8n2Ic85Ua2c3ZTws-6" value="현재 인덱스&lt;br&gt;&amp;lt; 문자열 길이&lt;br&gt;- 패턴 길이?" style="strokeWidth=2;html=1;shape=mxgraph.flowchart.decision;whiteSpace=wrap;" parent="WIyWlLk6GJQsqaUBKTNV-1" vertex="1">
          <mxGeometry x="368" y="180" width="140" height="80" as="geometry" />
        </mxCell>
        <mxCell id="Tnuf8n2Ic85Ua2c3ZTws-44" value="" style="edgeStyle=orthogonalEdgeStyle;rounded=0;orthogonalLoop=1;jettySize=auto;html=1;fontColor=#222222;" parent="WIyWlLk6GJQsqaUBKTNV-1" source="Tnuf8n2Ic85Ua2c3ZTws-8" target="Tnuf8n2Ic85Ua2c3ZTws-42" edge="1">
          <mxGeometry relative="1" as="geometry" />
        </mxCell>
        <mxCell id="Tnuf8n2Ic85Ua2c3ZTws-8" value="matched := true" style="rounded=1;whiteSpace=wrap;html=1;absoluteArcSize=1;arcSize=14;strokeWidth=2;" parent="WIyWlLk6GJQsqaUBKTNV-1" vertex="1">
          <mxGeometry x="388" y="300" width="100" height="50" as="geometry" />
        </mxCell>
        <mxCell id="Tnuf8n2Ic85Ua2c3ZTws-24" value="Yes" style="edgeStyle=orthogonalEdgeStyle;rounded=0;orthogonalLoop=1;jettySize=auto;html=1;fontStyle=1;entryX=0.5;entryY=0;entryDx=0;entryDy=0;entryPerimeter=0;" parent="WIyWlLk6GJQsqaUBKTNV-1" source="Tnuf8n2Ic85Ua2c3ZTws-12" target="Tnuf8n2Ic85Ua2c3ZTws-25" edge="1">
          <mxGeometry relative="1" as="geometry">
            <mxPoint x="438" y="616.8399999999999" as="targetPoint" />
          </mxGeometry>
        </mxCell>
        <mxCell id="Tnuf8n2Ic85Ua2c3ZTws-26" style="edgeStyle=orthogonalEdgeStyle;rounded=0;orthogonalLoop=1;jettySize=auto;html=1;exitX=0;exitY=0.5;exitDx=0;exitDy=0;exitPerimeter=0;entryX=0;entryY=0.5;entryDx=0;entryDy=0;entryPerimeter=0;" parent="WIyWlLk6GJQsqaUBKTNV-1" source="Tnuf8n2Ic85Ua2c3ZTws-12" target="Tnuf8n2Ic85Ua2c3ZTws-46" edge="1">
          <mxGeometry relative="1" as="geometry">
            <mxPoint x="268" y="310" as="targetPoint" />
            <Array as="points">
              <mxPoint x="368" y="487" />
              <mxPoint x="180" y="487" />
              <mxPoint x="180" y="820" />
            </Array>
          </mxGeometry>
        </mxCell>
        <mxCell id="Tnuf8n2Ic85Ua2c3ZTws-27" value="&lt;b&gt;No&lt;/b&gt;" style="edgeLabel;html=1;align=center;verticalAlign=middle;resizable=0;points=[];" parent="Tnuf8n2Ic85Ua2c3ZTws-26" vertex="1" connectable="0">
          <mxGeometry x="-0.1936" y="-1" relative="1" as="geometry">
            <mxPoint as="offset" />
          </mxGeometry>
        </mxCell>
        <mxCell id="Tnuf8n2Ic85Ua2c3ZTws-12" value="비교 인덱스&lt;br&gt;&amp;lt; 패턴 길이?" style="strokeWidth=2;html=1;shape=mxgraph.flowchart.decision;whiteSpace=wrap;" parent="WIyWlLk6GJQsqaUBKTNV-1" vertex="1">
          <mxGeometry x="368" y="450" width="140" height="80" as="geometry" />
        </mxCell>
        <mxCell id="Tnuf8n2Ic85Ua2c3ZTws-18" style="edgeStyle=orthogonalEdgeStyle;rounded=0;orthogonalLoop=1;jettySize=auto;html=1;" parent="WIyWlLk6GJQsqaUBKTNV-1" source="Tnuf8n2Ic85Ua2c3ZTws-15" target="Tnuf8n2Ic85Ua2c3ZTws-17" edge="1">
          <mxGeometry relative="1" as="geometry" />
        </mxCell>
        <mxCell id="Tnuf8n2Ic85Ua2c3ZTws-15" value="l값 반환" style="shape=parallelogram;html=1;strokeWidth=2;perimeter=parallelogramPerimeter;whiteSpace=wrap;rounded=1;arcSize=12;size=0.23;" parent="WIyWlLk6GJQsqaUBKTNV-1" vertex="1">
          <mxGeometry x="388" y="940" width="100" height="60" as="geometry" />
        </mxCell>
        <mxCell id="Tnuf8n2Ic85Ua2c3ZTws-17" value="함수 종료" style="strokeWidth=2;html=1;shape=mxgraph.flowchart.terminator;whiteSpace=wrap;" parent="WIyWlLk6GJQsqaUBKTNV-1" vertex="1">
          <mxGeometry x="388" y="1030" width="100" height="60" as="geometry" />
        </mxCell>
        <mxCell id="Tnuf8n2Ic85Ua2c3ZTws-32" value="No" style="edgeStyle=orthogonalEdgeStyle;rounded=0;orthogonalLoop=1;jettySize=auto;html=1;fontColor=#222222;fontStyle=1;entryX=1;entryY=0.5;entryDx=0;entryDy=0;" parent="WIyWlLk6GJQsqaUBKTNV-1" source="Tnuf8n2Ic85Ua2c3ZTws-25" target="Tnuf8n2Ic85Ua2c3ZTws-29" edge="1">
          <mxGeometry relative="1" as="geometry">
            <mxPoint x="338" y="616.8400000000001" as="targetPoint" />
          </mxGeometry>
        </mxCell>
        <mxCell id="Tnuf8n2Ic85Ua2c3ZTws-39" value="Yes" style="edgeStyle=orthogonalEdgeStyle;rounded=0;orthogonalLoop=1;jettySize=auto;html=1;fontColor=#222222;entryX=0.5;entryY=0;entryDx=0;entryDy=0;fontStyle=1" parent="WIyWlLk6GJQsqaUBKTNV-1" source="Tnuf8n2Ic85Ua2c3ZTws-25" target="Tnuf8n2Ic85Ua2c3ZTws-40" edge="1">
          <mxGeometry relative="1" as="geometry">
            <mxPoint x="438" y="766.8399999999999" as="targetPoint" />
          </mxGeometry>
        </mxCell>
        <mxCell id="Tnuf8n2Ic85Ua2c3ZTws-25" value="&lt;font color=&quot;#222222&quot;&gt;문자열[비교 인덱스 + 현재 인덱스]&lt;br&gt;= 패턴[비교 인덱스]?&lt;/font&gt;" style="strokeWidth=2;html=1;shape=mxgraph.flowchart.decision;whiteSpace=wrap;labelBackgroundColor=default;" parent="WIyWlLk6GJQsqaUBKTNV-1" vertex="1">
          <mxGeometry x="363" y="566.8399999999999" width="150" height="100" as="geometry" />
        </mxCell>
        <mxCell id="Tnuf8n2Ic85Ua2c3ZTws-48" style="edgeStyle=orthogonalEdgeStyle;rounded=0;orthogonalLoop=1;jettySize=auto;html=1;fontColor=#222222;" parent="WIyWlLk6GJQsqaUBKTNV-1" source="Tnuf8n2Ic85Ua2c3ZTws-29" edge="1">
          <mxGeometry relative="1" as="geometry">
            <mxPoint x="260" y="820" as="targetPoint" />
          </mxGeometry>
        </mxCell>
        <mxCell id="Tnuf8n2Ic85Ua2c3ZTws-29" value="matched := false" style="rounded=1;whiteSpace=wrap;html=1;absoluteArcSize=1;arcSize=14;strokeWidth=2;fontColor=#222222;" parent="WIyWlLk6GJQsqaUBKTNV-1" vertex="1">
          <mxGeometry x="210" y="591.8399999999999" width="100" height="50" as="geometry" />
        </mxCell>
        <mxCell id="Tnuf8n2Ic85Ua2c3ZTws-34" style="edgeStyle=orthogonalEdgeStyle;rounded=0;orthogonalLoop=1;jettySize=auto;html=1;fontColor=#222222;" parent="WIyWlLk6GJQsqaUBKTNV-1" source="Tnuf8n2Ic85Ua2c3ZTws-33" target="Tnuf8n2Ic85Ua2c3ZTws-6" edge="1">
          <mxGeometry relative="1" as="geometry" />
        </mxCell>
        <mxCell id="Tnuf8n2Ic85Ua2c3ZTws-33" value="현재 인덱스 :=&lt;br&gt;현재 인덱스 + 1" style="rounded=1;whiteSpace=wrap;html=1;absoluteArcSize=1;arcSize=14;strokeWidth=2;labelBackgroundColor=default;fontColor=#222222;" parent="WIyWlLk6GJQsqaUBKTNV-1" vertex="1">
          <mxGeometry x="570" y="195" width="100" height="50" as="geometry" />
        </mxCell>
        <mxCell id="Tnuf8n2Ic85Ua2c3ZTws-41" style="edgeStyle=orthogonalEdgeStyle;rounded=0;orthogonalLoop=1;jettySize=auto;html=1;entryX=1;entryY=0.5;entryDx=0;entryDy=0;entryPerimeter=0;fontColor=#222222;exitX=1;exitY=0.5;exitDx=0;exitDy=0;" parent="WIyWlLk6GJQsqaUBKTNV-1" source="Tnuf8n2Ic85Ua2c3ZTws-40" target="Tnuf8n2Ic85Ua2c3ZTws-12" edge="1">
          <mxGeometry relative="1" as="geometry">
            <Array as="points">
              <mxPoint x="550" y="735" />
              <mxPoint x="550" y="490" />
            </Array>
          </mxGeometry>
        </mxCell>
        <mxCell id="Tnuf8n2Ic85Ua2c3ZTws-40" value="비교 인덱스&lt;br&gt;:= 비교 인덱스 + 1" style="rounded=1;whiteSpace=wrap;html=1;absoluteArcSize=1;arcSize=14;strokeWidth=2;labelBackgroundColor=default;fontColor=#222222;" parent="WIyWlLk6GJQsqaUBKTNV-1" vertex="1">
          <mxGeometry x="388" y="709.9999999999999" width="100" height="50" as="geometry" />
        </mxCell>
        <mxCell id="Tnuf8n2Ic85Ua2c3ZTws-45" value="" style="edgeStyle=orthogonalEdgeStyle;rounded=0;orthogonalLoop=1;jettySize=auto;html=1;fontColor=#222222;" parent="WIyWlLk6GJQsqaUBKTNV-1" source="Tnuf8n2Ic85Ua2c3ZTws-42" target="Tnuf8n2Ic85Ua2c3ZTws-12" edge="1">
          <mxGeometry relative="1" as="geometry" />
        </mxCell>
        <mxCell id="Tnuf8n2Ic85Ua2c3ZTws-42" value="비교 인덱스 := 0" style="rounded=1;whiteSpace=wrap;html=1;absoluteArcSize=1;arcSize=14;strokeWidth=2;labelBackgroundColor=default;fontColor=#222222;" parent="WIyWlLk6GJQsqaUBKTNV-1" vertex="1">
          <mxGeometry x="388" y="380" width="100" height="50" as="geometry" />
        </mxCell>
        <mxCell id="Tnuf8n2Ic85Ua2c3ZTws-47" value="Yes" style="edgeStyle=orthogonalEdgeStyle;rounded=0;orthogonalLoop=1;jettySize=auto;html=1;fontColor=#222222;fontStyle=1" parent="WIyWlLk6GJQsqaUBKTNV-1" source="Tnuf8n2Ic85Ua2c3ZTws-46" target="Tnuf8n2Ic85Ua2c3ZTws-15" edge="1">
          <mxGeometry relative="1" as="geometry" />
        </mxCell>
        <mxCell id="Tnuf8n2Ic85Ua2c3ZTws-49" value="No" style="edgeStyle=orthogonalEdgeStyle;rounded=0;orthogonalLoop=1;jettySize=auto;html=1;entryX=0.5;entryY=1;entryDx=0;entryDy=0;fontColor=#222222;fontStyle=1" parent="WIyWlLk6GJQsqaUBKTNV-1" source="Tnuf8n2Ic85Ua2c3ZTws-46" target="Tnuf8n2Ic85Ua2c3ZTws-33" edge="1">
          <mxGeometry relative="1" as="geometry" />
        </mxCell>
        <mxCell id="Tnuf8n2Ic85Ua2c3ZTws-46" value="matched&lt;br&gt;= true?" style="strokeWidth=2;html=1;shape=mxgraph.flowchart.decision;whiteSpace=wrap;labelBackgroundColor=default;fontColor=#222222;" parent="WIyWlLk6GJQsqaUBKTNV-1" vertex="1">
          <mxGeometry x="368" y="780" width="140" height="80" as="geometry" />
        </mxCell>
        <mxCell id="WTypW_NZdv2thJM3V9Tz-0" value="현재 인덱스 := 0&lt;br&gt;matched := false" style="text;html=1;align=center;verticalAlign=middle;resizable=0;points=[];autosize=1;strokeColor=none;fillColor=none;" vertex="1" parent="WIyWlLk6GJQsqaUBKTNV-1">
          <mxGeometry x="388" y="105" width="100" height="30" as="geometry" />
        </mxCell>
      </root>
    </mxGraphModel>
  </diagram>
</mxfile>
